<mxfile host="app.diagrams.net" modified="2022-02-08T02:38:37.486Z" agent="5.0 (Windows NT 6.1; Win64; x64) AppleWebKit/537.36 (KHTML, like Gecko) Chrome/97.0.4692.71 Safari/537.36" etag="ZVJYevfCZc6utpKZgqCQ" version="16.5.3" type="github">
  <diagram id="VSQtRZAOAHOfjDpKPdQh" name="Page-1">
    <mxGraphModel dx="1182" dy="732" grid="1" gridSize="10" guides="1" tooltips="1" connect="1" arrows="1" fold="1" page="1" pageScale="1" pageWidth="827" pageHeight="1169" math="0" shadow="0">
      <root>
        <mxCell id="0" />
        <mxCell id="1" parent="0" />
        <mxCell id="AI21WLWg74INXMw1EdtU-33" style="edgeStyle=none;rounded=0;orthogonalLoop=1;jettySize=auto;html=1;exitX=1;exitY=0.5;exitDx=0;exitDy=0;entryX=0;entryY=0.5;entryDx=0;entryDy=0;fontSize=14;" edge="1" parent="1" source="AI21WLWg74INXMw1EdtU-1" target="AI21WLWg74INXMw1EdtU-2">
          <mxGeometry relative="1" as="geometry" />
        </mxCell>
        <mxCell id="AI21WLWg74INXMw1EdtU-1" value="平台组件验收CI" style="rounded=1;whiteSpace=wrap;html=1;" vertex="1" parent="1">
          <mxGeometry x="80" y="50" width="120" height="60" as="geometry" />
        </mxCell>
        <mxCell id="AI21WLWg74INXMw1EdtU-30" style="edgeStyle=none;rounded=0;orthogonalLoop=1;jettySize=auto;html=1;exitX=1;exitY=0.5;exitDx=0;exitDy=0;entryX=0;entryY=0.5;entryDx=0;entryDy=0;fontSize=14;" edge="1" parent="1" source="AI21WLWg74INXMw1EdtU-2" target="AI21WLWg74INXMw1EdtU-3">
          <mxGeometry relative="1" as="geometry" />
        </mxCell>
        <mxCell id="AI21WLWg74INXMw1EdtU-2" value="临时制品库" style="rounded=1;whiteSpace=wrap;html=1;" vertex="1" parent="1">
          <mxGeometry x="240" y="50" width="120" height="60" as="geometry" />
        </mxCell>
        <mxCell id="AI21WLWg74INXMw1EdtU-3" value="系统CI" style="rounded=1;whiteSpace=wrap;html=1;" vertex="1" parent="1">
          <mxGeometry x="410" y="50" width="120" height="60" as="geometry" />
        </mxCell>
        <mxCell id="AI21WLWg74INXMw1EdtU-4" value="&lt;font style=&quot;font-size: 14px&quot;&gt;组件/平台多级CI&lt;/font&gt;" style="text;html=1;resizable=0;autosize=1;align=center;verticalAlign=middle;points=[];fillColor=none;strokeColor=none;rounded=0;" vertex="1" parent="1">
          <mxGeometry x="10" y="20" width="120" height="20" as="geometry" />
        </mxCell>
        <mxCell id="AI21WLWg74INXMw1EdtU-5" value="" style="rounded=1;whiteSpace=wrap;html=1;" vertex="1" parent="1">
          <mxGeometry x="650" y="40" width="90" height="360" as="geometry" />
        </mxCell>
        <mxCell id="AI21WLWg74INXMw1EdtU-6" value="制品库" style="text;html=1;resizable=0;autosize=1;align=center;verticalAlign=middle;points=[];fillColor=none;strokeColor=none;rounded=0;" vertex="1" parent="1">
          <mxGeometry x="670" y="200" width="50" height="20" as="geometry" />
        </mxCell>
        <mxCell id="AI21WLWg74INXMw1EdtU-7" value="GERRIT代码库(定制清单,编排工具脚本)" style="rounded=0;whiteSpace=wrap;html=1;" vertex="1" parent="1">
          <mxGeometry x="80" y="310" width="360" height="60" as="geometry" />
        </mxCell>
        <mxCell id="AI21WLWg74INXMw1EdtU-8" value="&lt;font style=&quot;font-size: 14px&quot;&gt;产品定制套餐包集成CI&lt;/font&gt;" style="text;html=1;resizable=0;autosize=1;align=center;verticalAlign=middle;points=[];fillColor=none;strokeColor=none;rounded=0;" vertex="1" parent="1">
          <mxGeometry x="10" y="220" width="160" height="20" as="geometry" />
        </mxCell>
        <mxCell id="AI21WLWg74INXMw1EdtU-9" value="版本编排专用CI" style="ellipse;whiteSpace=wrap;html=1;fontSize=14;" vertex="1" parent="1">
          <mxGeometry x="220" y="240" width="120" height="40" as="geometry" />
        </mxCell>
        <mxCell id="AI21WLWg74INXMw1EdtU-11" value="" style="shape=flexArrow;endArrow=classic;html=1;rounded=0;fontSize=14;endWidth=60;endSize=18.37;width=58;" edge="1" parent="1">
          <mxGeometry width="50" height="50" relative="1" as="geometry">
            <mxPoint x="360" y="240" as="sourcePoint" />
            <mxPoint x="490" y="240.5" as="targetPoint" />
          </mxGeometry>
        </mxCell>
        <mxCell id="AI21WLWg74INXMw1EdtU-12" value="套餐包交付" style="edgeLabel;html=1;align=center;verticalAlign=middle;resizable=0;points=[];fontSize=14;" vertex="1" connectable="0" parent="AI21WLWg74INXMw1EdtU-11">
          <mxGeometry x="-0.3382" y="-4" relative="1" as="geometry">
            <mxPoint as="offset" />
          </mxGeometry>
        </mxCell>
        <mxCell id="AI21WLWg74INXMw1EdtU-13" value="XRExplore能开版" style="rounded=1;whiteSpace=wrap;html=1;fontSize=14;" vertex="1" parent="1">
          <mxGeometry x="510" y="210" width="120" height="20" as="geometry" />
        </mxCell>
        <mxCell id="AI21WLWg74INXMw1EdtU-14" value="XRExplore精简版" style="rounded=1;whiteSpace=wrap;html=1;fontSize=14;" vertex="1" parent="1">
          <mxGeometry x="510" y="250" width="120" height="20" as="geometry" />
        </mxCell>
        <mxCell id="AI21WLWg74INXMw1EdtU-15" value="XRExplore企业版" style="rounded=1;whiteSpace=wrap;html=1;fontSize=14;" vertex="1" parent="1">
          <mxGeometry x="510" y="290" width="120" height="20" as="geometry" />
        </mxCell>
        <mxCell id="AI21WLWg74INXMw1EdtU-17" value="大空间版本" style="rounded=1;whiteSpace=wrap;html=1;fontSize=14;" vertex="1" parent="1">
          <mxGeometry x="780" y="250" width="120" height="20" as="geometry" />
        </mxCell>
        <mxCell id="AI21WLWg74INXMw1EdtU-18" value="云协作版本" style="rounded=1;whiteSpace=wrap;html=1;fontSize=14;" vertex="1" parent="1">
          <mxGeometry x="780" y="300" width="120" height="20" as="geometry" />
        </mxCell>
        <mxCell id="AI21WLWg74INXMw1EdtU-19" value="号百商旅版本" style="rounded=1;whiteSpace=wrap;html=1;fontSize=14;" vertex="1" parent="1">
          <mxGeometry x="780" y="350" width="120" height="20" as="geometry" />
        </mxCell>
        <mxCell id="AI21WLWg74INXMw1EdtU-25" value="" style="rounded=1;whiteSpace=wrap;html=1;fontSize=14;" vertex="1" parent="1">
          <mxGeometry x="40" y="460" width="1030" height="80" as="geometry" />
        </mxCell>
        <mxCell id="AI21WLWg74INXMw1EdtU-26" value="套餐包:产品线根据自己的需要,选择XRExplore平台项目交付的组件定制出产品所需平台版本的套餐包,包括XRExplore能开版,XRExplore精简版,XRExplore企业版" style="text;html=1;resizable=0;autosize=1;align=center;verticalAlign=middle;points=[];fillColor=none;strokeColor=none;rounded=0;fontSize=14;" vertex="1" parent="1">
          <mxGeometry x="60" y="480" width="1000" height="20" as="geometry" />
        </mxCell>
        <mxCell id="AI21WLWg74INXMw1EdtU-27" value="编排过程:从制品库下载XRExplore,从gerrit获取定制包清单和编排工具;编排生成定制包,再将其上传制品库" style="text;html=1;resizable=0;autosize=1;align=center;verticalAlign=middle;points=[];fillColor=none;strokeColor=none;rounded=0;fontSize=14;" vertex="1" parent="1">
          <mxGeometry x="80" y="510" width="660" height="20" as="geometry" />
        </mxCell>
        <mxCell id="AI21WLWg74INXMw1EdtU-31" value="" style="endArrow=classic;html=1;rounded=0;fontSize=14;exitX=-0.022;exitY=0.325;exitDx=0;exitDy=0;exitPerimeter=0;entryX=0.308;entryY=0.025;entryDx=0;entryDy=0;entryPerimeter=0;" edge="1" parent="1" source="AI21WLWg74INXMw1EdtU-5" target="AI21WLWg74INXMw1EdtU-9">
          <mxGeometry width="50" height="50" relative="1" as="geometry">
            <mxPoint x="520" y="160" as="sourcePoint" />
            <mxPoint x="240" y="150" as="targetPoint" />
            <Array as="points">
              <mxPoint x="257" y="157" />
            </Array>
          </mxGeometry>
        </mxCell>
        <mxCell id="AI21WLWg74INXMw1EdtU-35" value="" style="endArrow=classic;html=1;rounded=0;fontSize=14;entryX=0.417;entryY=1.025;entryDx=0;entryDy=0;entryPerimeter=0;" edge="1" parent="1" target="AI21WLWg74INXMw1EdtU-9">
          <mxGeometry width="50" height="50" relative="1" as="geometry">
            <mxPoint x="270" y="310" as="sourcePoint" />
            <mxPoint x="320" y="260" as="targetPoint" />
          </mxGeometry>
        </mxCell>
        <mxCell id="AI21WLWg74INXMw1EdtU-36" value="" style="endArrow=none;dashed=1;html=1;dashPattern=1 3;strokeWidth=2;rounded=0;fontSize=14;exitX=0;exitY=0.75;exitDx=0;exitDy=0;" edge="1" parent="1" source="AI21WLWg74INXMw1EdtU-17">
          <mxGeometry width="50" height="50" relative="1" as="geometry">
            <mxPoint x="500" y="290" as="sourcePoint" />
            <mxPoint x="630" y="220" as="targetPoint" />
            <Array as="points" />
          </mxGeometry>
        </mxCell>
        <mxCell id="AI21WLWg74INXMw1EdtU-37" value="" style="endArrow=none;dashed=1;html=1;dashPattern=1 3;strokeWidth=2;rounded=0;fontSize=14;exitX=0;exitY=0.75;exitDx=0;exitDy=0;" edge="1" parent="1">
          <mxGeometry width="50" height="50" relative="1" as="geometry">
            <mxPoint x="780" y="300" as="sourcePoint" />
            <mxPoint x="630" y="255" as="targetPoint" />
            <Array as="points" />
          </mxGeometry>
        </mxCell>
        <mxCell id="AI21WLWg74INXMw1EdtU-38" value="" style="endArrow=none;dashed=1;html=1;dashPattern=1 3;strokeWidth=2;rounded=0;fontSize=14;" edge="1" parent="1">
          <mxGeometry width="50" height="50" relative="1" as="geometry">
            <mxPoint x="780" y="350" as="sourcePoint" />
            <mxPoint x="630" y="300" as="targetPoint" />
            <Array as="points" />
          </mxGeometry>
        </mxCell>
      </root>
    </mxGraphModel>
  </diagram>
</mxfile>
